<?xml version="1.0" encoding="UTF-8"?>
<svg width="300px" height="300px" viewBox="0 0 300 300" version="1.1" xmlns="http://www.w3.org/2000/svg" xmlns:xlink="http://www.w3.org/1999/xlink">
    <!-- Generator: Sketch 52.5 (67469) - http://www.bohemiancoding.com/sketch -->
    <title>bg_pattern</title>
    <desc>Created with Sketch.</desc>
    <g id="bg_pattern" stroke="none" stroke-width="1" fill="none" fill-rule="evenodd">
        <circle id="Circle" stroke="#66EFD9" stroke-width="2" cx="182.5" cy="251.5" r="3.5"></circle>
        <circle id="Circle" stroke="#66EFD9" stroke-width="2" cx="103.5" cy="251.5" r="3.5"></circle>
        <circle id="Circle" stroke="#66EFD9" stroke-width="2" cx="48.5" cy="108.5" r="3.5"></circle>
        <circle id="Circle" stroke="#66EFD9" cx="7" cy="170" r="2"></circle>
        <circle id="Circle" stroke="#66EFD9" cx="49" cy="184" r="2"></circle>
        <circle id="Circle" stroke="#66EFD9" cx="110" cy="101" r="2"></circle>
        <circle id="Circle" stroke="#66EFD9" cx="113" cy="190" r="2"></circle>
        <circle id="Circle" stroke="#66EFD9" cx="174" cy="192" r="2"></circle>
        <circle id="Circle" stroke="#66EFD9" cx="257" cy="252" r="2"></circle>
        <circle id="Circle" stroke="#66EFD9" cx="141" cy="248" r="2"></circle>
        <circle id="Circle" stroke="#66EFD9" cx="29" cy="252" r="2"></circle>
        <circle id="Circle" stroke="#66EFD9" stroke-width="2" cx="296.5" cy="103.5" r="3.5"></circle>
        <circle id="Circle" stroke="#E10098" stroke-width="2" cx="48.5" cy="73.5" r="4.5"></circle>
        <circle id="Circle" stroke="#66EFD9" stroke-width="2" cx="140.5" cy="79.5" r="4.5"></circle>
        <circle id="Circle" stroke="#66EFD9" stroke-width="2" cx="131.5" cy="207.5" r="4.5"></circle>
        <circle id="Circle" stroke="#E10098" stroke-width="2" cx="6.6146391" cy="145.5" r="4.5"></circle>
        <circle id="Circle" stroke="#66EFD9" stroke-width="2" cx="280.5" cy="169.5" r="4.5"></circle>
        <circle id="Circle" stroke="#66EFD9" stroke-width="2" cx="284.5" cy="279.5" r="4.5"></circle>
        <circle id="Circle" stroke="#66EFD9" stroke-width="2" cx="175.5" cy="3.5" r="3.5"></circle>
        <circle id="Circle" stroke="#E10098" stroke-width="2" cx="146.5" cy="34.5" r="3.5"></circle>
        <circle id="Circle" stroke="#E10098" stroke-width="2" cx="98.5" cy="49.5" r="3.5"></circle>
        <circle id="Circle" stroke="#E10098" stroke-width="2" cx="230.5" cy="33.5" r="3.5"></circle>
        <circle id="Circle" stroke="#E10098" cx="108.264714" cy="150.5" r="2.5"></circle>
        <circle id="Circle" stroke="#E10098" cx="81.5" cy="198.5" r="2.5"></circle>
        <circle id="Circle" stroke="#E10098" cx="83.5" cy="135.5" r="2.5"></circle>
        <circle id="Circle" stroke="#E10098" cx="213.5" cy="189.5" r="2.5"></circle>
        <circle id="Circle" stroke="#E10098" stroke-width="2" cx="219.5" cy="293.5" r="4.5"></circle>
        <circle id="Circle" stroke="#E10098" stroke-width="2" cx="66.5" cy="293.5" r="4.5"></circle>
        <circle id="Circle" stroke="#E10098" stroke-width="2" cx="237.5" cy="73.5" r="4.5"></circle>
        <g id="logo" transform="translate(62.077831, 29.732544) rotate(33.000000) translate(-62.077831, -29.732544) translate(57.077831, 23.732544)" fill="#E10098">
            <polygon id="Path" points="0.888048881 8.57142857 0.476190476 8.33277493 5.06433207 0.357142857 5.47619048 0.595796496"></polygon>
            <polygon id="Path" points="0.357142857 7.61904762 9.52380952 7.61904762 9.52380952 8.0952381 0.357142857 8.0952381"></polygon>
            <path d="M5.18232683,10.5952381 L0.595238095,7.96849586 L0.832881416,7.56025752 L5.41997015,10.1869998 L5.18232683,10.5952381 Z M9.16711858,3.74926629 L4.58002985,1.12252405 L4.81767317,0.714285714 L9.4047619,3.34102795 L9.16711858,3.74926629 Z" id="Shape" fill-rule="nonzero"></path>
            <polygon id="Path" points="0.829786843 3.69047619 0.595238095 3.27415762 5.12259411 0.595238095 5.35714286 1.01158563"></polygon>
            <path d="M9.11344083,8.57142857 L4.5418948,0.595796496 L4.95226349,0.357142857 L9.52380952,8.33277493 L9.11344083,8.57142857 Z M0.833333333,2.95981893 L1.307187,2.95981893 L1.307187,8.27920725 L0.833333333,8.27920725 L0.833333333,2.95981893 Z M8.78037309,2.95981893 L9.25422675,2.95981893 L9.25422675,8.27920725 L8.78037309,8.27920725 L8.78037309,2.95981893 Z" id="Shape" fill-rule="nonzero"></path>
            <polygon id="Path" points="5.08702601 10.3571429 4.88095238 10.0035174 8.84154542 7.73809524 9.04761905 8.09169257"></polygon>
            <path d="M9.86342061,8.39285714 C9.58797024,8.87008123 8.97394545,9.0329661 8.49477658,8.75863369 C8.0156077,8.48430128 7.85205905,7.87276862 8.12750942,7.39554453 C8.40295979,6.91832044 9.01698457,6.75543558 9.49615345,7.02976798 C9.97819159,7.30695802 10.1417403,7.91563306 9.86342061,8.39285714 M1.86962131,3.79493166 C1.59417094,4.27215575 0.980146154,4.43504061 0.50097728,4.16070821 C0.0218084058,3.8863758 -0.141740252,3.27484313 0.133710119,2.79761905 C0.40916049,2.32039496 1.02318527,2.15751009 1.50235415,2.4318425 C1.98152302,2.70903254 2.14507168,3.31770757 1.86962131,3.79493166 M0.136579394,8.39285714 C-0.138870977,7.91563306 0.0246776805,7.30695802 0.503846554,7.02976798 C0.983015428,6.75543558 1.59417094,6.91832044 1.87249058,7.39554453 C2.14794095,7.87276862 1.9843923,8.48144365 1.50522342,8.75863369 C1.02318527,9.0329661 0.412029764,8.87008123 0.136579394,8.39285714 M8.13037869,3.79493166 C7.85492832,3.31770757 8.01847698,2.70903254 8.49764585,2.4318425 C8.97681473,2.15751009 9.58797024,2.32039496 9.86628988,2.79761905 C10.1417403,3.27484313 9.97819159,3.88351817 9.49902272,4.16070821 C9.01985385,4.43504061 8.40582906,4.27215575 8.13037869,3.79493166 M5,11.1904762 C4.44622998,11.1904762 3.99862313,10.744686 3.99862313,10.1931636 C3.99862313,9.64164113 4.44622998,9.19585097 5,9.19585097 C5.55377002,9.19585097 6.00137687,9.64164113 6.00137687,10.1931636 C6.00137687,10.7418284 5.55377002,11.1904762 5,11.1904762 M5,1.99462522 C4.44622998,1.99462522 3.99862313,1.54883506 3.99862313,0.997312612 C3.99862313,0.445790165 4.44622998,0 5,0 C5.55377002,0 6.00137687,0.445790165 6.00137687,0.997312612 C6.00137687,1.54883506 5.55377002,1.99462522 5,1.99462522" id="Shape" fill-rule="nonzero"></path>
        </g>
        <g id="logo" transform="translate(76.216155, 102.204175) rotate(33.000000) translate(-76.216155, -102.204175) translate(72.216155, 97.404175)" fill="#E10098">
            <polygon id="Path" points="0.710439105 6.85714286 0.380952381 6.66621995 4.05146566 0.285714286 4.38095238 0.476637196"></polygon>
            <polygon id="Path" points="0.285714286 6.0952381 7.61904762 6.0952381 7.61904762 6.47619048 0.285714286 6.47619048"></polygon>
            <path d="M4.14586146,8.47619048 L0.476190476,6.37479669 L0.666305133,6.04820601 L4.33597612,8.1495998 L4.14586146,8.47619048 Z M7.33369487,2.99941303 L3.66402388,0.898019243 L3.85413854,0.571428571 L7.52380952,2.67282236 L7.33369487,2.99941303 Z" id="Shape" fill-rule="nonzero"></path>
            <polygon id="Path" points="0.663829475 2.95238095 0.476190476 2.61932609 4.09807529 0.476190476 4.28571429 0.809268505"></polygon>
            <path d="M7.29075267,6.85714286 L3.63351584,0.476637196 L3.96181079,0.285714286 L7.61904762,6.66621995 L7.29075267,6.85714286 Z M0.666666667,2.36785514 L1.0457496,2.36785514 L1.0457496,6.6233658 L0.666666667,6.6233658 L0.666666667,2.36785514 Z M7.02429847,2.36785514 L7.4033814,2.36785514 L7.4033814,6.6233658 L7.02429847,6.6233658 L7.02429847,2.36785514 Z" id="Shape" fill-rule="nonzero"></path>
            <polygon id="Path" points="4.06962081 8.28571429 3.9047619 8.00281389 7.07323633 6.19047619 7.23809524 6.47335406"></polygon>
            <path d="M7.89073649,6.71428571 C7.67037619,7.09606498 7.17915636,7.22637288 6.79582126,7.00690695 C6.41248616,6.78744102 6.28164724,6.29821489 6.50200753,5.91643562 C6.72236783,5.53465635 7.21358766,5.40434846 7.59692276,5.62381439 C7.98255328,5.84556642 8.1133922,6.33250644 7.89073649,6.71428571 M1.49569705,3.03594533 C1.27533675,3.4177246 0.784116923,3.54803249 0.400781824,3.32856656 C0.0174467247,3.10910064 -0.113392201,2.61987451 0.106968095,2.23809524 C0.327328392,1.85631597 0.818548219,1.72600807 1.20188332,1.945474 C1.58521842,2.16722603 1.71605734,2.65416606 1.49569705,3.03594533 M0.109263515,6.71428571 C-0.111096782,6.33250644 0.0197421444,5.84556642 0.403077244,5.62381439 C0.786412343,5.40434846 1.27533675,5.53465635 1.49799247,5.91643562 C1.71835276,6.29821489 1.58751384,6.78515492 1.20417874,7.00690695 C0.818548219,7.22637288 0.329623811,7.09606498 0.109263515,6.71428571 M6.50430295,3.03594533 C6.28394266,2.65416606 6.41478158,2.16722603 6.79811668,1.945474 C7.18145178,1.72600807 7.67037619,1.85631597 7.8930319,2.23809524 C8.1133922,2.61987451 7.98255328,3.10681453 7.59921818,3.32856656 C7.21588308,3.54803249 6.72466325,3.4177246 6.50430295,3.03594533 M4,8.95238095 C3.55698399,8.95238095 3.19889851,8.59574882 3.19889851,8.15453086 C3.19889851,7.7133129 3.55698399,7.35668077 4,7.35668077 C4.44301601,7.35668077 4.80110149,7.7133129 4.80110149,8.15453086 C4.80110149,8.59346272 4.44301601,8.95238095 4,8.95238095 M4,1.59570018 C3.55698399,1.59570018 3.19889851,1.23906805 3.19889851,0.79785009 C3.19889851,0.356632132 3.55698399,0 4,0 C4.44301601,0 4.80110149,0.356632132 4.80110149,0.79785009 C4.80110149,1.23906805 4.44301601,1.59570018 4,1.59570018" id="Shape" fill-rule="nonzero"></path>
        </g>
        <g id="logo" transform="translate(248.968950, 116.204175) rotate(33.000000) translate(-248.968950, -116.204175) translate(244.968950, 111.404175)" fill="#E10098">
            <polygon id="Path" points="0.710439105 6.85714286 0.380952381 6.66621995 4.05146566 0.285714286 4.38095238 0.476637196"></polygon>
            <polygon id="Path" points="0.285714286 6.0952381 7.61904762 6.0952381 7.61904762 6.47619048 0.285714286 6.47619048"></polygon>
            <path d="M4.14586146,8.47619048 L0.476190476,6.37479669 L0.666305133,6.04820601 L4.33597612,8.1495998 L4.14586146,8.47619048 Z M7.33369487,2.99941303 L3.66402388,0.898019243 L3.85413854,0.571428571 L7.52380952,2.67282236 L7.33369487,2.99941303 Z" id="Shape" fill-rule="nonzero"></path>
            <polygon id="Path" points="0.663829475 2.95238095 0.476190476 2.61932609 4.09807529 0.476190476 4.28571429 0.809268505"></polygon>
            <path d="M7.29075267,6.85714286 L3.63351584,0.476637196 L3.96181079,0.285714286 L7.61904762,6.66621995 L7.29075267,6.85714286 Z M0.666666667,2.36785514 L1.0457496,2.36785514 L1.0457496,6.6233658 L0.666666667,6.6233658 L0.666666667,2.36785514 Z M7.02429847,2.36785514 L7.4033814,2.36785514 L7.4033814,6.6233658 L7.02429847,6.6233658 L7.02429847,2.36785514 Z" id="Shape" fill-rule="nonzero"></path>
            <polygon id="Path" points="4.06962081 8.28571429 3.9047619 8.00281389 7.07323633 6.19047619 7.23809524 6.47335406"></polygon>
            <path d="M7.89073649,6.71428571 C7.67037619,7.09606498 7.17915636,7.22637288 6.79582126,7.00690695 C6.41248616,6.78744102 6.28164724,6.29821489 6.50200753,5.91643562 C6.72236783,5.53465635 7.21358766,5.40434846 7.59692276,5.62381439 C7.98255328,5.84556642 8.1133922,6.33250644 7.89073649,6.71428571 M1.49569705,3.03594533 C1.27533675,3.4177246 0.784116923,3.54803249 0.400781824,3.32856656 C0.0174467247,3.10910064 -0.113392201,2.61987451 0.106968095,2.23809524 C0.327328392,1.85631597 0.818548219,1.72600807 1.20188332,1.945474 C1.58521842,2.16722603 1.71605734,2.65416606 1.49569705,3.03594533 M0.109263515,6.71428571 C-0.111096782,6.33250644 0.0197421444,5.84556642 0.403077244,5.62381439 C0.786412343,5.40434846 1.27533675,5.53465635 1.49799247,5.91643562 C1.71835276,6.29821489 1.58751384,6.78515492 1.20417874,7.00690695 C0.818548219,7.22637288 0.329623811,7.09606498 0.109263515,6.71428571 M6.50430295,3.03594533 C6.28394266,2.65416606 6.41478158,2.16722603 6.79811668,1.945474 C7.18145178,1.72600807 7.67037619,1.85631597 7.8930319,2.23809524 C8.1133922,2.61987451 7.98255328,3.10681453 7.59921818,3.32856656 C7.21588308,3.54803249 6.72466325,3.4177246 6.50430295,3.03594533 M4,8.95238095 C3.55698399,8.95238095 3.19889851,8.59574882 3.19889851,8.15453086 C3.19889851,7.7133129 3.55698399,7.35668077 4,7.35668077 C4.44301601,7.35668077 4.80110149,7.7133129 4.80110149,8.15453086 C4.80110149,8.59346272 4.44301601,8.95238095 4,8.95238095 M4,1.59570018 C3.55698399,1.59570018 3.19889851,1.23906805 3.19889851,0.79785009 C3.19889851,0.356632132 3.55698399,0 4,0 C4.44301601,0 4.80110149,0.356632132 4.80110149,0.79785009 C4.80110149,1.23906805 4.44301601,1.59570018 4,1.59570018" id="Shape" fill-rule="nonzero"></path>
        </g>
        <g id="logo" transform="translate(57.878266, 154.012721) rotate(56.000000) translate(-57.878266, -154.012721) translate(50.878266, 145.612721)" fill="#E10098">
            <polygon id="Path" points="1.24326843 12 0.666666667 11.6658849 7.0900649 0.5 7.66666667 0.834115094"></polygon>
            <polygon id="Path" points="0.5 10.6666667 13.3333333 10.6666667 13.3333333 11.3333333 0.5 11.3333333"></polygon>
            <path d="M7.25525756,14.8333333 L0.833333333,11.1558942 L1.16603398,10.5843605 L7.58795821,14.2617997 L7.25525756,14.8333333 Z M12.833966,5.24897281 L6.41204179,1.57153368 L6.74474244,1 L13.1666667,4.67743913 L12.833966,5.24897281 Z" id="Shape" fill-rule="nonzero"></path>
            <polygon id="Path" points="1.16170158 5.16666667 0.833333333 4.58382066 7.17163175 0.833333333 7.5 1.41621988"></polygon>
            <path d="M12.7588172,12 L6.35865271,0.834115094 L6.93316888,0.5 L13.3333333,11.6658849 L12.7588172,12 Z M1.16666667,4.1437465 L1.8300618,4.1437465 L1.8300618,11.5908902 L1.16666667,11.5908902 L1.16666667,4.1437465 Z M12.2925223,4.1437465 L12.9559175,4.1437465 L12.9559175,11.5908902 L12.2925223,11.5908902 L12.2925223,4.1437465 Z" id="Shape" fill-rule="nonzero"></path>
            <polygon id="Path" points="7.12183641 14.5 6.83333333 14.0049243 12.3781636 10.8333333 12.6666667 11.3283696"></polygon>
            <path d="M13.8087888,11.75 C13.4231583,12.4181137 12.5635236,12.6461525 11.8926872,12.2620872 C11.2218508,11.8780218 10.9928827,11.0218761 11.3785132,10.3537623 C11.7641437,9.68564862 12.6237784,9.45760981 13.2946148,9.84167518 C13.9694682,10.2297412 14.1984364,11.0818863 13.8087888,11.75 M2.61746983,5.31290432 C2.23183931,5.98101805 1.37220462,6.20905686 0.701368192,5.82499149 C0.0305317681,5.44092612 -0.198436352,4.58478039 0.187194166,3.91666667 C0.572824685,3.24855295 1.43245938,3.02051413 2.10329581,3.4045795 C2.77413223,3.79264556 3.00310035,4.6447906 2.61746983,5.31290432 M0.191211151,11.75 C-0.194419368,11.0818863 0.0345487527,10.2297412 0.705385176,9.84167518 C1.3762216,9.45760981 2.23183931,9.68564862 2.62148682,10.3537623 C3.00711734,11.0218761 2.77814922,11.8740211 2.10731279,12.2620872 C1.43245938,12.6461525 0.57684167,12.4181137 0.191211151,11.75 M11.3825302,5.31290432 C10.9968996,4.6447906 11.2258678,3.79264556 11.8967042,3.4045795 C12.5675406,3.02051413 13.4231583,3.24855295 13.8128058,3.91666667 C14.1984364,4.58478039 13.9694682,5.43692543 13.2986318,5.82499149 C12.6277954,6.20905686 11.7681607,5.98101805 11.3825302,5.31290432 M7,15.6666667 C6.22472198,15.6666667 5.59807238,15.0425604 5.59807238,14.270429 C5.59807238,13.4982976 6.22472198,12.8741914 7,12.8741914 C7.77527802,12.8741914 8.40192762,13.4982976 8.40192762,14.270429 C8.40192762,15.0385598 7.77527802,15.6666667 7,15.6666667 M7,2.79247531 C6.22472198,2.79247531 5.59807238,2.16836908 5.59807238,1.39623766 C5.59807238,0.624106231 6.22472198,0 7,0 C7.77527802,0 8.40192762,0.624106231 8.40192762,1.39623766 C8.40192762,2.16836908 7.77527802,2.79247531 7,2.79247531" id="Shape" fill-rule="nonzero"></path>
        </g>
        <g id="logo" transform="translate(227.461187, 163.755219) rotate(33.000000) translate(-227.461187, -163.755219) translate(222.461187, 157.755219)" fill="#E10098">
            <polygon id="Path" points="0.888048881 8.57142857 0.476190476 8.33277493 5.06433207 0.357142857 5.47619048 0.595796496"></polygon>
            <polygon id="Path" points="0.357142857 7.61904762 9.52380952 7.61904762 9.52380952 8.0952381 0.357142857 8.0952381"></polygon>
            <path d="M5.18232683,10.5952381 L0.595238095,7.96849586 L0.832881416,7.56025752 L5.41997015,10.1869998 L5.18232683,10.5952381 Z M9.16711858,3.74926629 L4.58002985,1.12252405 L4.81767317,0.714285714 L9.4047619,3.34102795 L9.16711858,3.74926629 Z" id="Shape" fill-rule="nonzero"></path>
            <polygon id="Path" points="0.829786843 3.69047619 0.595238095 3.27415762 5.12259411 0.595238095 5.35714286 1.01158563"></polygon>
            <path d="M9.11344083,8.57142857 L4.5418948,0.595796496 L4.95226349,0.357142857 L9.52380952,8.33277493 L9.11344083,8.57142857 Z M0.833333333,2.95981893 L1.307187,2.95981893 L1.307187,8.27920725 L0.833333333,8.27920725 L0.833333333,2.95981893 Z M8.78037309,2.95981893 L9.25422675,2.95981893 L9.25422675,8.27920725 L8.78037309,8.27920725 L8.78037309,2.95981893 Z" id="Shape" fill-rule="nonzero"></path>
            <polygon id="Path" points="5.08702601 10.3571429 4.88095238 10.0035174 8.84154542 7.73809524 9.04761905 8.09169257"></polygon>
            <path d="M9.86342061,8.39285714 C9.58797024,8.87008123 8.97394545,9.0329661 8.49477658,8.75863369 C8.0156077,8.48430128 7.85205905,7.87276862 8.12750942,7.39554453 C8.40295979,6.91832044 9.01698457,6.75543558 9.49615345,7.02976798 C9.97819159,7.30695802 10.1417403,7.91563306 9.86342061,8.39285714 M1.86962131,3.79493166 C1.59417094,4.27215575 0.980146154,4.43504061 0.50097728,4.16070821 C0.0218084058,3.8863758 -0.141740252,3.27484313 0.133710119,2.79761905 C0.40916049,2.32039496 1.02318527,2.15751009 1.50235415,2.4318425 C1.98152302,2.70903254 2.14507168,3.31770757 1.86962131,3.79493166 M0.136579394,8.39285714 C-0.138870977,7.91563306 0.0246776805,7.30695802 0.503846554,7.02976798 C0.983015428,6.75543558 1.59417094,6.91832044 1.87249058,7.39554453 C2.14794095,7.87276862 1.9843923,8.48144365 1.50522342,8.75863369 C1.02318527,9.0329661 0.412029764,8.87008123 0.136579394,8.39285714 M8.13037869,3.79493166 C7.85492832,3.31770757 8.01847698,2.70903254 8.49764585,2.4318425 C8.97681473,2.15751009 9.58797024,2.32039496 9.86628988,2.79761905 C10.1417403,3.27484313 9.97819159,3.88351817 9.49902272,4.16070821 C9.01985385,4.43504061 8.40582906,4.27215575 8.13037869,3.79493166 M5,11.1904762 C4.44622998,11.1904762 3.99862313,10.744686 3.99862313,10.1931636 C3.99862313,9.64164113 4.44622998,9.19585097 5,9.19585097 C5.55377002,9.19585097 6.00137687,9.64164113 6.00137687,10.1931636 C6.00137687,10.7418284 5.55377002,11.1904762 5,11.1904762 M5,1.99462522 C4.44622998,1.99462522 3.99862313,1.54883506 3.99862313,0.997312612 C3.99862313,0.445790165 4.44622998,0 5,0 C5.55377002,0 6.00137687,0.445790165 6.00137687,0.997312612 C6.00137687,1.54883506 5.55377002,1.99462522 5,1.99462522" id="Shape" fill-rule="nonzero"></path>
        </g>
        <g id="Vert.x_Logo" transform="translate(11.000000, 11.000000)" fill="#66EFD9">
            <path d="M3,11.5 C3,10.675 2.325,10 1.5,10 C0.675,10 0,10.675 0,11.5 C0,12.325 0.675,13 1.5,13 C2.325,13 3,12.325 3,11.5" id="Path"></path>
            <g id="Group" transform="translate(3.000000, 0.000000)">
                <path d="M11.329927,0 L10.7416058,0 L9.12846715,0 L6.5189781,3.15 L3.9,0 L2.28686131,0 L1.67956204,0 L0.0664233577,0 C1.21459854,1.33333333 3.25474453,3.9 4.60218978,5.525 L1.09124088,9.76666667 C1.2810219,10.1166667 1.38540146,10.5083333 1.38540146,10.9166667 C1.38540146,10.9416667 1.38540146,10.975 1.38540146,11 L1.68905109,11 L2.29635036,11 L3.89051095,11 L12.9240876,0 L11.329927,0 Z" id="Path"></path>
                <path d="M9.46058394,6.79166667 L7.55328467,9.11666667 L9.1189781,11 L10.7321168,11 L11.320438,11 L12.9335766,11 C12.0226277,9.85833333 10.6562044,8.225 9.46058394,6.79166667 Z" id="Path"></path>
            </g>
        </g>
        <g id="Vert.x_Logo" transform="translate(12.862287, 91.732946) rotate(56.000000) translate(-12.862287, -91.732946) translate(4.862287, 85.232946)" fill="#66EFD9">
            <path d="M3,11.5 C3,10.675 2.325,10 1.5,10 C0.675,10 0,10.675 0,11.5 C0,12.325 0.675,13 1.5,13 C2.325,13 3,12.325 3,11.5" id="Path"></path>
            <g id="Group" transform="translate(3.000000, 0.000000)">
                <path d="M11.329927,0 L10.7416058,0 L9.12846715,0 L6.5189781,3.15 L3.9,0 L2.28686131,0 L1.67956204,0 L0.0664233577,0 C1.21459854,1.33333333 3.25474453,3.9 4.60218978,5.525 L1.09124088,9.76666667 C1.2810219,10.1166667 1.38540146,10.5083333 1.38540146,10.9166667 C1.38540146,10.9416667 1.38540146,10.975 1.38540146,11 L1.68905109,11 L2.29635036,11 L3.89051095,11 L12.9240876,0 L11.329927,0 Z" id="Path"></path>
                <path d="M9.46058394,6.79166667 L7.55328467,9.11666667 L9.1189781,11 L10.7321168,11 L11.320438,11 L12.9335766,11 C12.0226277,9.85833333 10.6562044,8.225 9.46058394,6.79166667 Z" id="Path"></path>
            </g>
        </g>
        <g id="Vert.x_Logo" transform="translate(102.000000, -1.000000)" fill="#66EFD9">
            <path d="M2.25,8.625 C2.25,8.00625 1.74375,7.5 1.125,7.5 C0.50625,7.5 0,8.00625 0,8.625 C0,9.24375 0.50625,9.75 1.125,9.75 C1.74375,9.75 2.25,9.24375 2.25,8.625" id="Path"></path>
            <g id="Group" transform="translate(2.250000, 0.000000)">
                <path d="M8.49744526,0 L8.05620438,0 L6.84635036,0 L4.88923358,2.3625 L2.925,0 L1.71514599,0 L1.25967153,0 L0.0498175182,0 C0.910948905,1 2.44105839,2.925 3.45164234,4.14375 L0.818430657,7.325 C0.960766423,7.5875 1.03905109,7.88125 1.03905109,8.1875 C1.03905109,8.20625 1.03905109,8.23125 1.03905109,8.25 L1.26678832,8.25 L1.72226277,8.25 L2.91788321,8.25 L9.69306569,0 L8.49744526,0 Z" id="Path"></path>
                <path d="M7.09543796,5.09375 L5.6649635,6.8375 L6.83923358,8.25 L8.04908759,8.25 L8.49032847,8.25 L9.70018248,8.25 C9.0169708,7.39375 7.99215328,6.16875 7.09543796,5.09375 Z" id="Path"></path>
            </g>
        </g>
        <g id="Vert.x_Logo" transform="translate(150.000000, 104.000000)" fill="#66EFD9">
            <path d="M2.25,8.625 C2.25,8.00625 1.74375,7.5 1.125,7.5 C0.50625,7.5 0,8.00625 0,8.625 C0,9.24375 0.50625,9.75 1.125,9.75 C1.74375,9.75 2.25,9.24375 2.25,8.625" id="Path"></path>
            <g id="Group" transform="translate(2.250000, 0.000000)">
                <path d="M8.49744526,0 L8.05620438,0 L6.84635036,0 L4.88923358,2.3625 L2.925,0 L1.71514599,0 L1.25967153,0 L0.0498175182,0 C0.910948905,1 2.44105839,2.925 3.45164234,4.14375 L0.818430657,7.325 C0.960766423,7.5875 1.03905109,7.88125 1.03905109,8.1875 C1.03905109,8.20625 1.03905109,8.23125 1.03905109,8.25 L1.26678832,8.25 L1.72226277,8.25 L2.91788321,8.25 L9.69306569,0 L8.49744526,0 Z" id="Path"></path>
                <path d="M7.09543796,5.09375 L5.6649635,6.8375 L6.83923358,8.25 L8.04908759,8.25 L8.49032847,8.25 L9.70018248,8.25 C9.0169708,7.39375 7.99215328,6.16875 7.09543796,5.09375 Z" id="Path"></path>
            </g>
        </g>
        <g id="Vert.x_Logo" transform="translate(158.882357, 148.559202) rotate(-38.000000) translate(-158.882357, -148.559202) translate(148.882357, 140.434202)" fill="#66EFD9">
            <path d="M3.75,14.375 C3.75,13.34375 2.90625,12.5 1.875,12.5 C0.84375,12.5 0,13.34375 0,14.375 C0,15.40625 0.84375,16.25 1.875,16.25 C2.90625,16.25 3.75,15.40625 3.75,14.375" id="Path"></path>
            <g id="Group" transform="translate(3.750000, 0.000000)">
                <path d="M14.1624088,0 L13.4270073,0 L11.4105839,0 L8.14872263,3.9375 L4.875,0 L2.85857664,0 L2.09945255,0 L0.0830291971,0 C1.51824818,1.66666667 4.06843066,4.875 5.75273723,6.90625 L1.36405109,12.2083333 C1.60127737,12.6458333 1.73175182,13.1354167 1.73175182,13.6458333 C1.73175182,13.6770833 1.73175182,13.71875 1.73175182,13.75 L2.11131387,13.75 L2.87043796,13.75 L4.86313869,13.75 L16.1551095,0 L14.1624088,0 Z" id="Path"></path>
                <path d="M11.8257299,8.48958333 L9.44160584,11.3958333 L11.3987226,13.75 L13.415146,13.75 L14.1505474,13.75 L16.1669708,13.75 C15.0282847,12.3229167 13.3202555,10.28125 11.8257299,8.48958333 Z" id="Path"></path>
            </g>
        </g>
        <g id="logo" transform="translate(280.619958, 29.258206) rotate(82.000000) translate(-280.619958, -29.258206) translate(272.619958, 19.658206)" fill="#E10098">
            <polygon id="Path" points="1.42087821 13.7142857 0.761904762 13.3324399 8.10293131 0.571428571 8.76190476 0.953274393"></polygon>
            <polygon id="Path" points="0.571428571 12.1904762 15.2380952 12.1904762 15.2380952 12.952381 0.571428571 12.952381"></polygon>
            <path d="M8.29172292,16.952381 L0.952380952,12.7495934 L1.33261027,12.096412 L8.67195224,16.2991996 L8.29172292,16.952381 Z M14.6673897,5.99882607 L7.32804776,1.79603849 L7.70827708,1.14285714 L15.047619,5.34564472 L14.6673897,5.99882607 Z" id="Shape" fill-rule="nonzero"></path>
            <polygon id="Path" points="1.32765895 5.9047619 0.952380952 5.23865219 8.19615057 0.952380952 8.57142857 1.61853701"></polygon>
            <path d="M14.5815053,13.7142857 L7.26703167,0.953274393 L7.92362158,0.571428571 L15.2380952,13.3324399 L14.5815053,13.7142857 Z M1.33333333,4.73571029 L2.0914992,4.73571029 L2.0914992,13.2467316 L1.33333333,13.2467316 L1.33333333,4.73571029 Z M14.0485969,4.73571029 L14.8067628,4.73571029 L14.8067628,13.2467316 L14.0485969,13.2467316 L14.0485969,4.73571029 Z" id="Shape" fill-rule="nonzero"></path>
            <polygon id="Path" points="8.13924162 16.5714286 7.80952381 16.0056278 14.1464727 12.3809524 14.4761905 12.9467081"></polygon>
            <path d="M15.781473,13.4285714 C15.3407524,14.19213 14.3583127,14.4527458 13.5916425,14.0138139 C12.8249723,13.574882 12.5632945,12.5964298 13.0040151,11.8328712 C13.4447357,11.0693127 14.4271753,10.8086969 15.1938455,11.2476288 C15.9651066,11.6911328 16.2267844,12.6650129 15.781473,13.4285714 M2.99139409,6.07189066 C2.5506735,6.83544919 1.56823385,7.09606498 0.801563648,6.65713313 C0.0348934493,6.21820127 -0.226784403,5.23974902 0.21393619,4.47619048 C0.654656783,3.71263194 1.63709644,3.45201615 2.40376664,3.890948 C3.17043683,4.33445206 3.43211469,5.30833212 2.99139409,6.07189066 M0.21852703,13.4285714 C-0.222193563,12.6650129 0.0394842888,11.6911328 0.806154487,11.2476288 C1.57282469,10.8086969 2.5506735,11.0693127 2.99598493,11.8328712 C3.43670553,12.5964298 3.17502767,13.5703098 2.40835748,14.0138139 C1.63709644,14.4527458 0.659247623,14.19213 0.21852703,13.4285714 M13.0086059,6.07189066 C12.5678853,5.30833212 12.8295632,4.33445206 13.5962334,3.890948 C14.3629036,3.45201615 15.3407524,3.71263194 15.7860638,4.47619048 C16.2267844,5.23974902 15.9651066,6.21362907 15.1984364,6.65713313 C14.4317662,7.09606498 13.4493265,6.83544919 13.0086059,6.07189066 M8,17.9047619 C7.11396797,17.9047619 6.39779701,17.1914976 6.39779701,16.3090617 C6.39779701,15.4266258 7.11396797,14.7133615 8,14.7133615 C8.88603203,14.7133615 9.60220299,15.4266258 9.60220299,16.3090617 C9.60220299,17.1869254 8.88603203,17.9047619 8,17.9047619 M8,3.19140036 C7.11396797,3.19140036 6.39779701,2.4781361 6.39779701,1.59570018 C6.39779701,0.713264264 7.11396797,0 8,0 C8.88603203,0 9.60220299,0.713264264 9.60220299,1.59570018 C9.60220299,2.4781361 8.88603203,3.19140036 8,3.19140036" id="Shape" fill-rule="nonzero"></path>
        </g>
        <g id="logo" transform="translate(196.878266, 200.863201) rotate(56.000000) translate(-196.878266, -200.863201) translate(189.878266, 192.463201)" fill="#E10098">
            <polygon id="Path" points="1.24326843 12 0.666666667 11.6658849 7.0900649 0.5 7.66666667 0.834115094"></polygon>
            <polygon id="Path" points="0.5 10.6666667 13.3333333 10.6666667 13.3333333 11.3333333 0.5 11.3333333"></polygon>
            <path d="M7.25525756,14.8333333 L0.833333333,11.1558942 L1.16603398,10.5843605 L7.58795821,14.2617997 L7.25525756,14.8333333 Z M12.833966,5.24897281 L6.41204179,1.57153368 L6.74474244,1 L13.1666667,4.67743913 L12.833966,5.24897281 Z" id="Shape" fill-rule="nonzero"></path>
            <polygon id="Path" points="1.16170158 5.16666667 0.833333333 4.58382066 7.17163175 0.833333333 7.5 1.41621988"></polygon>
            <path d="M12.7588172,12 L6.35865271,0.834115094 L6.93316888,0.5 L13.3333333,11.6658849 L12.7588172,12 Z M1.16666667,4.1437465 L1.8300618,4.1437465 L1.8300618,11.5908902 L1.16666667,11.5908902 L1.16666667,4.1437465 Z M12.2925223,4.1437465 L12.9559175,4.1437465 L12.9559175,11.5908902 L12.2925223,11.5908902 L12.2925223,4.1437465 Z" id="Shape" fill-rule="nonzero"></path>
            <polygon id="Path" points="7.12183641 14.5 6.83333333 14.0049243 12.3781636 10.8333333 12.6666667 11.3283696"></polygon>
            <path d="M13.8087888,11.75 C13.4231583,12.4181137 12.5635236,12.6461525 11.8926872,12.2620872 C11.2218508,11.8780218 10.9928827,11.0218761 11.3785132,10.3537623 C11.7641437,9.68564862 12.6237784,9.45760981 13.2946148,9.84167518 C13.9694682,10.2297412 14.1984364,11.0818863 13.8087888,11.75 M2.61746983,5.31290432 C2.23183931,5.98101805 1.37220462,6.20905686 0.701368192,5.82499149 C0.0305317681,5.44092612 -0.198436352,4.58478039 0.187194166,3.91666667 C0.572824685,3.24855295 1.43245938,3.02051413 2.10329581,3.4045795 C2.77413223,3.79264556 3.00310035,4.6447906 2.61746983,5.31290432 M0.191211151,11.75 C-0.194419368,11.0818863 0.0345487527,10.2297412 0.705385176,9.84167518 C1.3762216,9.45760981 2.23183931,9.68564862 2.62148682,10.3537623 C3.00711734,11.0218761 2.77814922,11.8740211 2.10731279,12.2620872 C1.43245938,12.6461525 0.57684167,12.4181137 0.191211151,11.75 M11.3825302,5.31290432 C10.9968996,4.6447906 11.2258678,3.79264556 11.8967042,3.4045795 C12.5675406,3.02051413 13.4231583,3.24855295 13.8128058,3.91666667 C14.1984364,4.58478039 13.9694682,5.43692543 13.2986318,5.82499149 C12.6277954,6.20905686 11.7681607,5.98101805 11.3825302,5.31290432 M7,15.6666667 C6.22472198,15.6666667 5.59807238,15.0425604 5.59807238,14.270429 C5.59807238,13.4982976 6.22472198,12.8741914 7,12.8741914 C7.77527802,12.8741914 8.40192762,13.4982976 8.40192762,14.270429 C8.40192762,15.0385598 7.77527802,15.6666667 7,15.6666667 M7,2.79247531 C6.22472198,2.79247531 5.59807238,2.16836908 5.59807238,1.39623766 C5.59807238,0.624106231 6.22472198,0 7,0 C7.77527802,0 8.40192762,0.624106231 8.40192762,1.39623766 C8.40192762,2.16836908 7.77527802,2.79247531 7,2.79247531" id="Shape" fill-rule="nonzero"></path>
        </g>
        <g id="logo" transform="translate(66.303225, 245.500483) rotate(56.000000) translate(-66.303225, -245.500483) translate(59.303225, 237.100483)" fill="#E10098">
            <polygon id="Path" points="1.24326843 12 0.666666667 11.6658849 7.0900649 0.5 7.66666667 0.834115094"></polygon>
            <polygon id="Path" points="0.5 10.6666667 13.3333333 10.6666667 13.3333333 11.3333333 0.5 11.3333333"></polygon>
            <path d="M7.25525756,14.8333333 L0.833333333,11.1558942 L1.16603398,10.5843605 L7.58795821,14.2617997 L7.25525756,14.8333333 Z M12.833966,5.24897281 L6.41204179,1.57153368 L6.74474244,1 L13.1666667,4.67743913 L12.833966,5.24897281 Z" id="Shape" fill-rule="nonzero"></path>
            <polygon id="Path" points="1.16170158 5.16666667 0.833333333 4.58382066 7.17163175 0.833333333 7.5 1.41621988"></polygon>
            <path d="M12.7588172,12 L6.35865271,0.834115094 L6.93316888,0.5 L13.3333333,11.6658849 L12.7588172,12 Z M1.16666667,4.1437465 L1.8300618,4.1437465 L1.8300618,11.5908902 L1.16666667,11.5908902 L1.16666667,4.1437465 Z M12.2925223,4.1437465 L12.9559175,4.1437465 L12.9559175,11.5908902 L12.2925223,11.5908902 L12.2925223,4.1437465 Z" id="Shape" fill-rule="nonzero"></path>
            <polygon id="Path" points="7.12183641 14.5 6.83333333 14.0049243 12.3781636 10.8333333 12.6666667 11.3283696"></polygon>
            <path d="M13.8087888,11.75 C13.4231583,12.4181137 12.5635236,12.6461525 11.8926872,12.2620872 C11.2218508,11.8780218 10.9928827,11.0218761 11.3785132,10.3537623 C11.7641437,9.68564862 12.6237784,9.45760981 13.2946148,9.84167518 C13.9694682,10.2297412 14.1984364,11.0818863 13.8087888,11.75 M2.61746983,5.31290432 C2.23183931,5.98101805 1.37220462,6.20905686 0.701368192,5.82499149 C0.0305317681,5.44092612 -0.198436352,4.58478039 0.187194166,3.91666667 C0.572824685,3.24855295 1.43245938,3.02051413 2.10329581,3.4045795 C2.77413223,3.79264556 3.00310035,4.6447906 2.61746983,5.31290432 M0.191211151,11.75 C-0.194419368,11.0818863 0.0345487527,10.2297412 0.705385176,9.84167518 C1.3762216,9.45760981 2.23183931,9.68564862 2.62148682,10.3537623 C3.00711734,11.0218761 2.77814922,11.8740211 2.10731279,12.2620872 C1.43245938,12.6461525 0.57684167,12.4181137 0.191211151,11.75 M11.3825302,5.31290432 C10.9968996,4.6447906 11.2258678,3.79264556 11.8967042,3.4045795 C12.5675406,3.02051413 13.4231583,3.24855295 13.8128058,3.91666667 C14.1984364,4.58478039 13.9694682,5.43692543 13.2986318,5.82499149 C12.6277954,6.20905686 11.7681607,5.98101805 11.3825302,5.31290432 M7,15.6666667 C6.22472198,15.6666667 5.59807238,15.0425604 5.59807238,14.270429 C5.59807238,13.4982976 6.22472198,12.8741914 7,12.8741914 C7.77527802,12.8741914 8.40192762,13.4982976 8.40192762,14.270429 C8.40192762,15.0385598 7.77527802,15.6666667 7,15.6666667 M7,2.79247531 C6.22472198,2.79247531 5.59807238,2.16836908 5.59807238,1.39623766 C5.59807238,0.624106231 6.22472198,0 7,0 C7.77527802,0 8.40192762,0.624106231 8.40192762,1.39623766 C8.40192762,2.16836908 7.77527802,2.79247531 7,2.79247531" id="Shape" fill-rule="nonzero"></path>
        </g>
        <g id="logo" transform="translate(121.338066, 288.155853) rotate(89.000000) translate(-121.338066, -288.155853) translate(113.338066, 279.155853)" fill="#E10098">
            <polygon id="Path" points="1.42087821 13.7142857 0.761904762 13.3324399 8.10293131 0.571428571 8.76190476 0.953274393"></polygon>
            <polygon id="Path" points="0.571428571 12.1904762 15.2380952 12.1904762 15.2380952 12.952381 0.571428571 12.952381"></polygon>
            <path d="M8.29172292,16.952381 L0.952380952,12.7495934 L1.33261027,12.096412 L8.67195224,16.2991996 L8.29172292,16.952381 Z M14.6673897,5.99882607 L7.32804776,1.79603849 L7.70827708,1.14285714 L15.047619,5.34564472 L14.6673897,5.99882607 Z" id="Shape" fill-rule="nonzero"></path>
            <polygon id="Path" points="1.32765895 5.9047619 0.952380952 5.23865219 8.19615057 0.952380952 8.57142857 1.61853701"></polygon>
            <path d="M14.5815053,13.7142857 L7.26703167,0.953274393 L7.92362158,0.571428571 L15.2380952,13.3324399 L14.5815053,13.7142857 Z M1.33333333,4.73571029 L2.0914992,4.73571029 L2.0914992,13.2467316 L1.33333333,13.2467316 L1.33333333,4.73571029 Z M14.0485969,4.73571029 L14.8067628,4.73571029 L14.8067628,13.2467316 L14.0485969,13.2467316 L14.0485969,4.73571029 Z" id="Shape" fill-rule="nonzero"></path>
            <polygon id="Path" points="8.13924162 16.5714286 7.80952381 16.0056278 14.1464727 12.3809524 14.4761905 12.9467081"></polygon>
            <path d="M15.781473,13.4285714 C15.3407524,14.19213 14.3583127,14.4527458 13.5916425,14.0138139 C12.8249723,13.574882 12.5632945,12.5964298 13.0040151,11.8328712 C13.4447357,11.0693127 14.4271753,10.8086969 15.1938455,11.2476288 C15.9651066,11.6911328 16.2267844,12.6650129 15.781473,13.4285714 M2.99139409,6.07189066 C2.5506735,6.83544919 1.56823385,7.09606498 0.801563648,6.65713313 C0.0348934493,6.21820127 -0.226784403,5.23974902 0.21393619,4.47619048 C0.654656783,3.71263194 1.63709644,3.45201615 2.40376664,3.890948 C3.17043683,4.33445206 3.43211469,5.30833212 2.99139409,6.07189066 M0.21852703,13.4285714 C-0.222193563,12.6650129 0.0394842888,11.6911328 0.806154487,11.2476288 C1.57282469,10.8086969 2.5506735,11.0693127 2.99598493,11.8328712 C3.43670553,12.5964298 3.17502767,13.5703098 2.40835748,14.0138139 C1.63709644,14.4527458 0.659247623,14.19213 0.21852703,13.4285714 M13.0086059,6.07189066 C12.5678853,5.30833212 12.8295632,4.33445206 13.5962334,3.890948 C14.3629036,3.45201615 15.3407524,3.71263194 15.7860638,4.47619048 C16.2267844,5.23974902 15.9651066,6.21362907 15.1984364,6.65713313 C14.4317662,7.09606498 13.4493265,6.83544919 13.0086059,6.07189066 M8,17.9047619 C7.11396797,17.9047619 6.39779701,17.1914976 6.39779701,16.3090617 C6.39779701,15.4266258 7.11396797,14.7133615 8,14.7133615 C8.88603203,14.7133615 9.60220299,15.4266258 9.60220299,16.3090617 C9.60220299,17.1869254 8.88603203,17.9047619 8,17.9047619 M8,3.19140036 C7.11396797,3.19140036 6.39779701,2.4781361 6.39779701,1.59570018 C6.39779701,0.713264264 7.11396797,0 8,0 C8.88603203,0 9.60220299,0.713264264 9.60220299,1.59570018 C9.60220299,2.4781361 8.88603203,3.19140036 8,3.19140036" id="Shape" fill-rule="nonzero"></path>
        </g>
        <g id="Vert.x_Logo" transform="translate(23.593957, 280.559202) rotate(-16.000000) translate(-23.593957, -280.559202) translate(13.593957, 272.434202)" fill="#66EFD9">
            <path d="M3.75,14.375 C3.75,13.34375 2.90625,12.5 1.875,12.5 C0.84375,12.5 0,13.34375 0,14.375 C0,15.40625 0.84375,16.25 1.875,16.25 C2.90625,16.25 3.75,15.40625 3.75,14.375" id="Path"></path>
            <g id="Group" transform="translate(3.750000, 0.000000)">
                <path d="M14.1624088,0 L13.4270073,0 L11.4105839,0 L8.14872263,3.9375 L4.875,0 L2.85857664,0 L2.09945255,0 L0.0830291971,0 C1.51824818,1.66666667 4.06843066,4.875 5.75273723,6.90625 L1.36405109,12.2083333 C1.60127737,12.6458333 1.73175182,13.1354167 1.73175182,13.6458333 C1.73175182,13.6770833 1.73175182,13.71875 1.73175182,13.75 L2.11131387,13.75 L2.87043796,13.75 L4.86313869,13.75 L16.1551095,0 L14.1624088,0 Z" id="Path"></path>
                <path d="M11.8257299,8.48958333 L9.44160584,11.3958333 L11.3987226,13.75 L13.415146,13.75 L14.1505474,13.75 L16.1669708,13.75 C15.0282847,12.3229167 13.3202555,10.28125 11.8257299,8.48958333 Z" id="Path"></path>
            </g>
        </g>
        <polygon id="Triangle" stroke="#E10098" transform="translate(222.914864, 246.049786) rotate(34.000000) translate(-222.914864, -246.049786) " points="222.914864 240.049786 228.414864 252.049786 217.414864 252.049786"></polygon>
        <polygon id="Triangle" stroke="#E10098" transform="translate(272.914864, 110.049786) rotate(34.000000) translate(-272.914864, -110.049786) " points="272.914864 104.049786 278.414864 116.049786 267.414864 116.049786"></polygon>
        <polygon id="Triangle" stroke="#E10098" transform="translate(113.909760, 226.284470) rotate(167.000000) translate(-113.909760, -226.284470) " points="113.90976 221.78447 117.90976 230.78447 109.90976 230.78447"></polygon>
        <polygon id="Triangle" stroke="#E10098" transform="translate(17.394465, 214.670754) rotate(22.000000) translate(-17.394465, -214.670754) " points="17.3944651 210.170754 21.3944651 219.170754 13.3944651 219.170754"></polygon>
        <polygon id="Triangle" stroke="#E10098" transform="translate(171.909760, 228.166065) rotate(214.000000) translate(-171.909760, -228.166065) " points="171.90976 223.666065 175.90976 232.666065 167.90976 232.666065"></polygon>
        <polygon id="Triangle" stroke="#66EFD9" transform="translate(220.444288, 90.579210) rotate(34.000000) translate(-220.444288, -90.579210) " points="220.444288 87.0792102 223.444288 94.0792102 217.444288 94.0792102"></polygon>
        <polygon id="Triangle" stroke="#66EFD9" transform="translate(203.589324, 117.601664) rotate(-44.000000) translate(-203.589324, -117.601664) " points="203.589324 114.101664 206.589324 121.101664 200.589324 121.101664"></polygon>
        <polygon id="Triangle" stroke="#66EFD9" transform="translate(195.401487, 49.473680) rotate(94.000000) translate(-195.401487, -49.473680) " points="195.401487 42.4736796 201.401487 56.4736796 189.401487 56.4736796"></polygon>
        <polygon id="Triangle" stroke="#66EFD9" transform="translate(162.444288, 280.579210) rotate(34.000000) translate(-162.444288, -280.579210) " points="162.444288 277.07921 165.444288 284.07921 159.444288 284.07921"></polygon>
        <polygon id="Triangle" stroke="#E10098" transform="translate(275.237554, 149.797713) rotate(70.000000) translate(-275.237554, -149.797713) " points="275.237554 144.797713 279.737554 154.797713 270.737554 154.797713"></polygon>
        <polygon id="Triangle" stroke="#E10098" transform="translate(184.703864, 92.046677) rotate(-16.000000) translate(-184.703864, -92.046677) " points="184.703864 87.0466766 189.203864 97.0466766 180.203864 97.0466766"></polygon>
        <polygon id="Triangle" stroke="#E10098" transform="translate(267.703864, 217.046677) rotate(-16.000000) translate(-267.703864, -217.046677) " points="267.703864 212.046677 272.203864 222.046677 263.203864 222.046677"></polygon>
        <polygon id="Triangle" stroke="#66EFD9" transform="translate(210.710701, 144.551824) rotate(1.000000) translate(-210.710701, -144.551824) " points="210.710701 141.051824 213.710701 148.051824 207.710701 148.051824"></polygon>
    </g>
</svg>